#!OML:ASF G:\acrobat\cartwheel_test\acrobat_wednesday\Session 1\acrobatwednesday.ASF
:FULLY-SPECIFIED
:DEGREES
32
root -15.2462 14.8184 -4.6759 89.0039 58.6398 23.5769
lowerback 29.7212 0.951158 7.78673
upperback 3.20366 4.93 6.87141
thorax -12.0521 2.09254 1.32751
lowerneck -24.5639 -3.66171 -1.53076
upperneck 2.1633 -5.47937 12.4833
head 4.97444 -1.74335 3.64683
rclavicle 2.54444e-014 -6.36111e-015
rhumerus 37.9517 -27.8289 -41.9216
rradius 36.167
rwrist 12.6692
rhand -38.0083 -12.0837
rfingers 7.12502
rthumb -11.0473 -41.773
lclavicle 2.54444e-014 -6.36111e-015
lhumerus 75.168 35.0428 20.5594
lradius 42.2353
lwrist 35.1089
lhand -41.9529 -31.0631
lfingers 7.12502
lthumb -14.8498 -1.61528
rfemur -85.4069 -9.37124 9.1827
rtibia 64.9273
rfoot -4.44464 16.604
rtoes -4.31702
lfemur -18.9605 -8.5932 -20.9035
ltibia -2.09562
lfoot 6.00331 39.343
ltoes 47.8673
33
root -15.0377 14.7349 -4.26106 94.2079 57.1673 27.5273
lowerback 30.2625 1.25492 9.58091
upperback 2.80088 5.9465 6.59078
thorax -12.4877 2.41136 -0.296891
lowerneck -26.1449 -4.07803 -0.36695
upperneck 2.39039 -6.28342 10.7136
head 5.20314 -2.20321 2.79043
rclavicle -4.45278e-014 -4.81059e-014
rhumerus 42.1076 -30.9691 -41.3862
rradius 31.6368
rwrist 14.6001
rhand -37.3995 -13.4299
rfingers 7.12502
rthumb -10.46 -43.1497
lclavicle -4.45278e-014 -4.81059e-014
lhumerus 75.7678 33.5347 19.3809
lradius 43.0067
lwrist 34.9061
lhand -41.7847 -31.43
lfingers 7.12502
lthumb -14.6877 -1.97028
rfemur -83.8564 -9.85746 7.43814
rtibia 62.9756
rfoot -3.42726 19.6936
rtoes -2.79194
lfemur -16.4162 -6.55371 -21.8121
ltibia 2.28761
lfoot 37.7303 17.0572
ltoes 65.207
34
root -14.8345 14.6062 -3.84114 99.0922 54.8794 31.9498
lowerback 30.3464 1.75772 9.28109
upperback 2.86074 6.69294 7.68715
thorax -12.6252 2.78497 0.748997
lowerneck -27.5735 -4.48448 -1.33519
upperneck 2.55323 -6.4442 9.60871
head 5.43337 -2.34432 2.55914
rclavicle 1.59028e-014 1.4074e-013
rhumerus 50.4683 -34.7945 -45.2144
rradius 26.5543
rwrist 19.4422
rhand -37.4041 -13.4069
rfingers 7.12502
rthumb -10.4644 -43.1264
lclavicle 1.59028e-014 1.4074e-013
lhumerus 74.5856 32.6769 18.6501
lradius 43.5394
lwrist 33.7416
lhand -41.4064 -32.3085
lfingers 7.12502
lthumb -14.3233 -2.82256
rfemur -81.8341 -11.277 4.82257
rtibia 61.4489
rfoot -2.60341 22.1369
rtoes -1.35281
lfemur -12.8729 -3.58231 -22.6328
ltibia 5.62312
lfoot 33.6838 -20.7991
ltoes 57.5522
35
root -14.6069 14.4887 -3.43602 101.816 52.351 33.59
lowerback 31.2033 1.6802 10.1612
upperback 2.24782 7.00122 7.29535
thorax -13.5196 2.78337 -0.283691
lowerneck -27.433 -4.51539 -2.23588
upperneck 2.26411 -6.194 9.97596
head 5.35043 -2.21597 2.8546
rclavicle 6.67916e-014 -6.99722e-014
rhumerus 67.4744 -39.2533 -65.1021
rradius 20.3718
rwrist 32.4686
rhand -38.2444 -13.8477
rfingers 7.12502
rthumb -11.275 -43.5247
lclavicle 6.67916e-014 -6.99722e-014
lhumerus 71.2593 31.8634 14.145
lradius 44.8759
lwrist 32.9652
lhand -41.1905 -33.8345
lfingers 7.12502
lthumb -14.1152 -4.33398
rfemur -80.397 -11.7576 2.13067
rtibia 60.3051
rfoot -0.883136 23.2478
rtoes -3.19307
lfemur -9.2395 -0.0441219 -22.6822
ltibia 11.887
lfoot 33.8516 -12.1416
ltoes 62.0405
36
root -14.3462 14.3702 -3.03601 106.261 49.335 36.4744
lowerback 30.4504 2.36713 9.69379
upperback 1.66317 7.84461 8.11241
thorax -14.0434 3.17508 0.521987
lowerneck -28.4542 -4.62839 -2.11817
upperneck 2.32888 -6.18953 8.04736
head 5.40822 -2.35341 2.20395
rclavicle 4.45278e-014 -2.54444e-014
rhumerus 82.7203 -40.5743 -82.3615
rradius 16.8423
rwrist 41.3934
rhand -38.4838 -15.1526
rfingers 7.12502
rthumb -11.5058 -44.8169
lclavicle 4.45278e-014 -2.54444e-014
lhumerus 69.1477 30.9889 12.9062
lradius 45.8174
lwrist 31.2029
lhand -40.821 -35.6595
lfingers 7.12502
lthumb -13.7591 -6.13448
rfemur -78.8602 -13.7037 -0.858791
rtibia 58.584
rfoot -0.0396083 24.7085
rtoes -8.9104
lfemur -5.50784 3.89832 -21.9533
ltibia 17.1255
lfoot 31.8362 -10.8159
ltoes 62.6018
37
root -14.0716 14.3078 -2.67519 111.944 46.5756 38.361
lowerback 27.952 2.74158 10.3431
upperback 0.553982 8.38463 8.38889
thorax -14.12 3.38303 0.387415
lowerneck -29.2906 -4.53325 -1.90859
upperneck 2.10445 -5.92526 6.30014
head 5.32728 -2.36369 1.64469
rclavicle 3.18055e-014 1.94014e-013
rhumerus 93.6261 -38.655 -95.6561
rradius 14.7931
rwrist 45.9503
rhand -37.4485 -16.1975
rfingers 7.12502
rthumb -10.5073 -45.9149
lclavicle 3.18055e-014 1.94014e-013
lhumerus 65.7432 30.5272 10.4302
lradius 47.1549
lwrist 30.425
lhand -40.2631 -36.9248
lfingers 7.12502
lthumb -13.2214 -7.36405
rfemur -78.9723 -16.0086 -3.27204
rtibia 55.8051
rfoot -0.450342 26.4013
rtoes -11.7345
lfemur -4.13862 6.14509 -20.5815
ltibia 22.7582
lfoot 34.2306 -7.36774
ltoes 64.1259
38
root -13.7723 14.2738 -2.30267 117.957 43.5963 40.0557
lowerback 25.0535 2.76299 11.2583
upperback -0.488042 8.47278 8.46034
thorax -14.5095 3.4243 0.340683
lowerneck -28.7575 -4.25993 -2.65309
upperneck 0.74928 -5.16118 5.67308
head 4.77542 -2.07888 1.66579
rclavicle 4.77083e-014 1.28812e-013
rhumerus 98.7608 -35.1805 -103.198
rradius 13.9238
rwrist 48.209
rhand -34.9666 -19.3499
rfingers 7.12502
rthumb -8.11254 -49.1741
lclavicle 4.77083e-014 1.28812e-013
lhumerus 61.2121 30.0091 7.47592
lradius 48.7417
lwrist 30.2773
lhand -40.2988 -36.8614
lfingers 7.12502
lthumb -13.2558 -7.3029
rfemur -77.8601 -17.9399 -7.14231
rtibia 50.7528
rfoot -2.9066 28.5844
rtoes -9.46445
lfemur -2.63643 9.26283 -18.5828
ltibia 26.929
lfoot 34.8504 9.71459
ltoes 65.3655
